<?xml version="1.0" encoding="UTF-8" standalone="no"?><svg xmlns="http://www.w3.org/2000/svg" xmlns:xlink="http://www.w3.org/1999/xlink" contentScriptType="application/ecmascript" contentStyleType="text/css" height="702px" preserveAspectRatio="none" style="width:660px;height:702px;" version="1.1" viewBox="0 0 660 702" width="660px" zoomAndPan="magnify"><defs><filter height="300%" id="f1xr9sojy0tani" width="300%" x="-1" y="-1"><feGaussianBlur result="blurOut" stdDeviation="2.0"/><feColorMatrix in="blurOut" result="blurOut2" type="matrix" values="0 0 0 0 0 0 0 0 0 0 0 0 0 0 0 0 0 0 .4 0"/><feOffset dx="4.0" dy="4.0" in="blurOut2" result="blurOut3"/><feBlend in="SourceGraphic" in2="blurOut3" mode="normal"/></filter></defs><g><!--cluster smartContrat--><polygon fill="#FFFFFF" filter="url(#f1xr9sojy0tani)" points="22,24,132,24,139,46.2969,638,46.2969,638,690,22,690,22,24" style="stroke: #000000; stroke-width: 1.5;"/><line style="stroke: #000000; stroke-width: 1.5;" x1="22" x2="139" y1="46.2969" y2="46.2969"/><text fill="#000000" font-family="sans-serif" font-size="14" font-weight="bold" lengthAdjust="spacingAndGlyphs" textLength="104" x="26" y="38.9951">smartContrat</text><!--class Core--><rect fill="#FEFECE" filter="url(#f1xr9sojy0tani)" height="112.0234" id="Core" style="stroke: #A80036; stroke-width: 1.5;" width="254" x="186" y="562"/><ellipse cx="294.25" cy="578" fill="#ADD1B2" rx="11" ry="11" style="stroke: #A80036; stroke-width: 1.0;"/><path d="M296.5938,573.6719 L296.7656,573.75 C296.9844,573.4375 297.1875,573.3438 297.4844,573.3438 C297.7813,573.3438 298.0625,573.4844 298.2188,573.75 C298.3125,573.9063 298.3281,574.0313 298.3281,574.4688 L298.3281,575.8906 C298.3281,576.3125 298.2969,576.5 298.1875,576.6563 C298.0156,576.875 297.75,577.0156 297.4844,577.0156 C297.2656,577.0156 297.0313,576.9063 296.8906,576.7656 C296.75,576.6406 296.7188,576.5156 296.6563,576.1094 C296.5625,575.7031 296.3906,575.4844 295.9063,575.2031 C295.4375,574.9531 294.8281,574.7969 294.25,574.7969 C292.5156,574.7969 291.2656,576.1094 291.2656,577.8906 L291.2656,578.9844 C291.2656,580.6875 292.5625,581.7813 294.6094,581.7813 C295.375,581.7813 296.0625,581.6563 296.4844,581.3906 C296.6719,581.2969 296.6719,581.2969 297.125,580.8125 C297.3125,580.625 297.5156,580.5469 297.7344,580.5469 C298.2031,580.5469 298.5938,580.9375 298.5938,581.3906 C298.5938,581.7813 298.2656,582.2344 297.6875,582.6406 C296.9375,583.1875 295.7813,583.4844 294.5625,583.4844 C291.6719,583.4844 289.5625,581.5938 289.5625,579.0156 L289.5625,577.8906 C289.5625,575.1719 291.5625,573.0938 294.1875,573.0938 C295.0625,573.0938 295.6563,573.2344 296.5938,573.6719 Z "/><text fill="#000000" font-family="sans-serif" font-size="12" lengthAdjust="spacingAndGlyphs" textLength="29" x="314.75" y="582.1543">Core</text><line style="stroke: #A80036; stroke-width: 1.5;" x1="187" x2="439" y1="594" y2="594"/><ellipse cx="197" cy="605.9023" fill="none" rx="3" ry="3" style="stroke: #038048; stroke-width: 1.0;"/><text fill="#000000" font-family="sans-serif" font-size="11" lengthAdjust="spacingAndGlyphs" textLength="173" x="206" y="608.2104">newContractAddress: address</text><ellipse cx="197" cy="618.707" fill="none" rx="3" ry="3" style="stroke: #038048; stroke-width: 1.0;"/><text fill="#000000" font-family="sans-serif" font-size="11" lengthAdjust="spacingAndGlyphs" textLength="90" x="206" y="621.0151">owner: address</text><line style="stroke: #A80036; stroke-width: 1.5;" x1="187" x2="439" y1="627.6094" y2="627.6094"/><ellipse cx="197" cy="639.5117" fill="#84BE84" rx="3" ry="3" style="stroke: #038048; stroke-width: 1.0;"/><text fill="#000000" font-family="sans-serif" font-size="11" lengthAdjust="spacingAndGlyphs" textLength="228" x="206" y="641.8198">upgrade(newContractAddress): address</text><ellipse cx="197" cy="652.3164" fill="#84BE84" rx="3" ry="3" style="stroke: #038048; stroke-width: 1.0;"/><text fill="#000000" font-family="sans-serif" font-size="11" lengthAdjust="spacingAndGlyphs" textLength="145" x="206" y="654.6245">ownable(owner): address</text><ellipse cx="197" cy="665.1211" fill="#84BE84" rx="3" ry="3" style="stroke: #038048; stroke-width: 1.0;"/><text fill="#000000" font-family="sans-serif" font-size="11" lengthAdjust="spacingAndGlyphs" textLength="139" x="206" y="667.4292">pause(bootleID): unit256</text><!--class Base--><rect fill="#FEFECE" filter="url(#f1xr9sojy0tani)" height="176.0469" id="Base" style="stroke: #A80036; stroke-width: 1.5;" width="227" x="199.5" y="326"/><ellipse cx="293.25" cy="342" fill="#ADD1B2" rx="11" ry="11" style="stroke: #A80036; stroke-width: 1.0;"/><path d="M295.5938,337.6719 L295.7656,337.75 C295.9844,337.4375 296.1875,337.3438 296.4844,337.3438 C296.7813,337.3438 297.0625,337.4844 297.2188,337.75 C297.3125,337.9063 297.3281,338.0313 297.3281,338.4688 L297.3281,339.8906 C297.3281,340.3125 297.2969,340.5 297.1875,340.6563 C297.0156,340.875 296.75,341.0156 296.4844,341.0156 C296.2656,341.0156 296.0313,340.9063 295.8906,340.7656 C295.75,340.6406 295.7188,340.5156 295.6563,340.1094 C295.5625,339.7031 295.3906,339.4844 294.9063,339.2031 C294.4375,338.9531 293.8281,338.7969 293.25,338.7969 C291.5156,338.7969 290.2656,340.1094 290.2656,341.8906 L290.2656,342.9844 C290.2656,344.6875 291.5625,345.7813 293.6094,345.7813 C294.375,345.7813 295.0625,345.6563 295.4844,345.3906 C295.6719,345.2969 295.6719,345.2969 296.125,344.8125 C296.3125,344.625 296.5156,344.5469 296.7344,344.5469 C297.2031,344.5469 297.5938,344.9375 297.5938,345.3906 C297.5938,345.7813 297.2656,346.2344 296.6875,346.6406 C295.9375,347.1875 294.7813,347.4844 293.5625,347.4844 C290.6719,347.4844 288.5625,345.5938 288.5625,343.0156 L288.5625,341.8906 C288.5625,339.1719 290.5625,337.0938 293.1875,337.0938 C294.0625,337.0938 294.6563,337.2344 295.5938,337.6719 Z "/><text fill="#000000" font-family="sans-serif" font-size="12" lengthAdjust="spacingAndGlyphs" textLength="31" x="313.75" y="346.1543">Base</text><line style="stroke: #A80036; stroke-width: 1.5;" x1="200.5" x2="425.5" y1="358" y2="358"/><ellipse cx="210.5" cy="369.9023" fill="none" rx="3" ry="3" style="stroke: #038048; stroke-width: 1.0;"/><text fill="#000000" font-family="sans-serif" font-size="11" lengthAdjust="spacingAndGlyphs" textLength="26" x="219.5" y="372.2104">Field</text><ellipse cx="210.5" cy="382.707" fill="none" rx="3" ry="3" style="stroke: #038048; stroke-width: 1.0;"/><text fill="#000000" font-family="sans-serif" font-size="11" lengthAdjust="spacingAndGlyphs" textLength="61" x="219.5" y="385.0151">OilProduce</text><ellipse cx="210.5" cy="395.5117" fill="none" rx="3" ry="3" style="stroke: #038048; stroke-width: 1.0;"/><text fill="#000000" font-family="sans-serif" font-size="11" lengthAdjust="spacingAndGlyphs" textLength="36" x="219.5" y="397.8198">Bootle</text><line style="stroke: #A80036; stroke-width: 1.5;" x1="200.5" x2="425.5" y1="404.4141" y2="404.4141"/><ellipse cx="210.5" cy="416.3164" fill="#84BE84" rx="3" ry="3" style="stroke: #038048; stroke-width: 1.0;"/><text fill="#000000" font-family="sans-serif" font-size="11" lengthAdjust="spacingAndGlyphs" textLength="51" x="219.5" y="418.6245">harvest()</text><ellipse cx="210.5" cy="429.1211" fill="#84BE84" rx="3" ry="3" style="stroke: #038048; stroke-width: 1.0;"/><text fill="#000000" font-family="sans-serif" font-size="11" lengthAdjust="spacingAndGlyphs" textLength="127" x="219.5" y="431.4292">transport(State enum)</text><ellipse cx="210.5" cy="441.9258" fill="#84BE84" rx="3" ry="3" style="stroke: #038048; stroke-width: 1.0;"/><text fill="#000000" font-family="sans-serif" font-size="11" lengthAdjust="spacingAndGlyphs" textLength="41" x="219.5" y="444.2339">press()</text><ellipse cx="210.5" cy="454.7305" fill="#84BE84" rx="3" ry="3" style="stroke: #038048; stroke-width: 1.0;"/><text fill="#000000" font-family="sans-serif" font-size="11" lengthAdjust="spacingAndGlyphs" textLength="53" x="219.5" y="457.0386">bootling()</text><ellipse cx="210.5" cy="467.5352" fill="#84BE84" rx="3" ry="3" style="stroke: #038048; stroke-width: 1.0;"/><text fill="#000000" font-family="sans-serif" font-size="11" lengthAdjust="spacingAndGlyphs" textLength="201" x="219.5" y="469.8433">getDelivery(Address sellerAddress)</text><ellipse cx="210.5" cy="480.3398" fill="#84BE84" rx="3" ry="3" style="stroke: #038048; stroke-width: 1.0;"/><text fill="#000000" font-family="sans-serif" font-size="11" lengthAdjust="spacingAndGlyphs" textLength="112" x="219.5" y="482.6479">presentOil(bootleId)</text><ellipse cx="210.5" cy="493.1445" fill="#84BE84" rx="3" ry="3" style="stroke: #038048; stroke-width: 1.0;"/><text fill="#000000" font-family="sans-serif" font-size="11" lengthAdjust="spacingAndGlyphs" textLength="175" x="219.5" y="495.4526">buyOil(bootleId, buyerAddress)</text><!--class AccessControl--><rect fill="#FEFECE" filter="url(#f1xr9sojy0tani)" height="86.4141" id="AccessControl" style="stroke: #A80036; stroke-width: 1.5;" width="282" x="172" y="180"/><ellipse cx="264.25" cy="196" fill="#ADD1B2" rx="11" ry="11" style="stroke: #A80036; stroke-width: 1.0;"/><path d="M266.5938,191.6719 L266.7656,191.75 C266.9844,191.4375 267.1875,191.3438 267.4844,191.3438 C267.7813,191.3438 268.0625,191.4844 268.2188,191.75 C268.3125,191.9063 268.3281,192.0313 268.3281,192.4688 L268.3281,193.8906 C268.3281,194.3125 268.2969,194.5 268.1875,194.6563 C268.0156,194.875 267.75,195.0156 267.4844,195.0156 C267.2656,195.0156 267.0313,194.9063 266.8906,194.7656 C266.75,194.6406 266.7188,194.5156 266.6563,194.1094 C266.5625,193.7031 266.3906,193.4844 265.9063,193.2031 C265.4375,192.9531 264.8281,192.7969 264.25,192.7969 C262.5156,192.7969 261.2656,194.1094 261.2656,195.8906 L261.2656,196.9844 C261.2656,198.6875 262.5625,199.7813 264.6094,199.7813 C265.375,199.7813 266.0625,199.6563 266.4844,199.3906 C266.6719,199.2969 266.6719,199.2969 267.125,198.8125 C267.3125,198.625 267.5156,198.5469 267.7344,198.5469 C268.2031,198.5469 268.5938,198.9375 268.5938,199.3906 C268.5938,199.7813 268.2656,200.2344 267.6875,200.6406 C266.9375,201.1875 265.7813,201.4844 264.5625,201.4844 C261.6719,201.4844 259.5625,199.5938 259.5625,197.0156 L259.5625,195.8906 C259.5625,193.1719 261.5625,191.0938 264.1875,191.0938 C265.0625,191.0938 265.6563,191.2344 266.5938,191.6719 Z "/><text fill="#000000" font-family="sans-serif" font-size="12" lengthAdjust="spacingAndGlyphs" textLength="89" x="284.75" y="200.1543">AccessControl</text><line style="stroke: #A80036; stroke-width: 1.5;" x1="173" x2="453" y1="212" y2="212"/><line style="stroke: #A80036; stroke-width: 1.5;" x1="173" x2="453" y1="220" y2="220"/><ellipse cx="183" cy="231.9023" fill="#84BE84" rx="3" ry="3" style="stroke: #038048; stroke-width: 1.0;"/><text fill="#000000" font-family="sans-serif" font-size="11" lengthAdjust="spacingAndGlyphs" textLength="256" x="192" y="234.2104">setManufactor(manufactorAddress): address</text><ellipse cx="183" cy="244.707" fill="#84BE84" rx="3" ry="3" style="stroke: #038048; stroke-width: 1.0;"/><text fill="#000000" font-family="sans-serif" font-size="11" lengthAdjust="spacingAndGlyphs" textLength="226" x="192" y="247.0151">setSeller(manufactorAddress): address</text><ellipse cx="183" cy="257.5117" fill="#84BE84" rx="3" ry="3" style="stroke: #038048; stroke-width: 1.0;"/><text fill="#000000" font-family="sans-serif" font-size="11" lengthAdjust="spacingAndGlyphs" textLength="193" x="192" y="259.8198">setBuyer(buyerAddress): address</text><!--class Manufactor--><rect fill="#FEFECE" filter="url(#f1xr9sojy0tani)" height="60.8047" id="Manufactor" style="stroke: #A80036; stroke-width: 1.5;" width="193" x="428.5" y="59"/><ellipse cx="485.25" cy="75" fill="#ADD1B2" rx="11" ry="11" style="stroke: #A80036; stroke-width: 1.0;"/><path d="M487.5938,70.6719 L487.7656,70.75 C487.9844,70.4375 488.1875,70.3438 488.4844,70.3438 C488.7813,70.3438 489.0625,70.4844 489.2188,70.75 C489.3125,70.9063 489.3281,71.0313 489.3281,71.4688 L489.3281,72.8906 C489.3281,73.3125 489.2969,73.5 489.1875,73.6563 C489.0156,73.875 488.75,74.0156 488.4844,74.0156 C488.2656,74.0156 488.0313,73.9063 487.8906,73.7656 C487.75,73.6406 487.7188,73.5156 487.6563,73.1094 C487.5625,72.7031 487.3906,72.4844 486.9063,72.2031 C486.4375,71.9531 485.8281,71.7969 485.25,71.7969 C483.5156,71.7969 482.2656,73.1094 482.2656,74.8906 L482.2656,75.9844 C482.2656,77.6875 483.5625,78.7813 485.6094,78.7813 C486.375,78.7813 487.0625,78.6563 487.4844,78.3906 C487.6719,78.2969 487.6719,78.2969 488.125,77.8125 C488.3125,77.625 488.5156,77.5469 488.7344,77.5469 C489.2031,77.5469 489.5938,77.9375 489.5938,78.3906 C489.5938,78.7813 489.2656,79.2344 488.6875,79.6406 C487.9375,80.1875 486.7813,80.4844 485.5625,80.4844 C482.6719,80.4844 480.5625,78.5938 480.5625,76.0156 L480.5625,74.8906 C480.5625,72.1719 482.5625,70.0938 485.1875,70.0938 C486.0625,70.0938 486.6563,70.2344 487.5938,70.6719 Z "/><text fill="#000000" font-family="sans-serif" font-size="12" lengthAdjust="spacingAndGlyphs" textLength="71" x="505.75" y="79.1543">Manufactor</text><line style="stroke: #A80036; stroke-width: 1.5;" x1="429.5" x2="620.5" y1="91" y2="91"/><ellipse cx="439.5" cy="102.9023" fill="none" rx="3" ry="3" style="stroke: #038048; stroke-width: 1.0;"/><text fill="#000000" font-family="sans-serif" font-size="11" lengthAdjust="spacingAndGlyphs" textLength="167" x="448.5" y="105.2104">manufactorAddress: address</text><line style="stroke: #A80036; stroke-width: 1.5;" x1="429.5" x2="620.5" y1="111.8047" y2="111.8047"/><!--class Seller--><rect fill="#FEFECE" filter="url(#f1xr9sojy0tani)" height="60.8047" id="Seller" style="stroke: #A80036; stroke-width: 1.5;" width="160" x="233" y="59"/><ellipse cx="291.25" cy="75" fill="#ADD1B2" rx="11" ry="11" style="stroke: #A80036; stroke-width: 1.0;"/><path d="M293.5938,70.6719 L293.7656,70.75 C293.9844,70.4375 294.1875,70.3438 294.4844,70.3438 C294.7813,70.3438 295.0625,70.4844 295.2188,70.75 C295.3125,70.9063 295.3281,71.0313 295.3281,71.4688 L295.3281,72.8906 C295.3281,73.3125 295.2969,73.5 295.1875,73.6563 C295.0156,73.875 294.75,74.0156 294.4844,74.0156 C294.2656,74.0156 294.0313,73.9063 293.8906,73.7656 C293.75,73.6406 293.7188,73.5156 293.6563,73.1094 C293.5625,72.7031 293.3906,72.4844 292.9063,72.2031 C292.4375,71.9531 291.8281,71.7969 291.25,71.7969 C289.5156,71.7969 288.2656,73.1094 288.2656,74.8906 L288.2656,75.9844 C288.2656,77.6875 289.5625,78.7813 291.6094,78.7813 C292.375,78.7813 293.0625,78.6563 293.4844,78.3906 C293.6719,78.2969 293.6719,78.2969 294.125,77.8125 C294.3125,77.625 294.5156,77.5469 294.7344,77.5469 C295.2031,77.5469 295.5938,77.9375 295.5938,78.3906 C295.5938,78.7813 295.2656,79.2344 294.6875,79.6406 C293.9375,80.1875 292.7813,80.4844 291.5625,80.4844 C288.6719,80.4844 286.5625,78.5938 286.5625,76.0156 L286.5625,74.8906 C286.5625,72.1719 288.5625,70.0938 291.1875,70.0938 C292.0625,70.0938 292.6563,70.2344 293.5938,70.6719 Z "/><text fill="#000000" font-family="sans-serif" font-size="12" lengthAdjust="spacingAndGlyphs" textLength="35" x="311.75" y="79.1543">Seller</text><line style="stroke: #A80036; stroke-width: 1.5;" x1="234" x2="392" y1="91" y2="91"/><ellipse cx="244" cy="102.9023" fill="none" rx="3" ry="3" style="stroke: #038048; stroke-width: 1.0;"/><text fill="#000000" font-family="sans-serif" font-size="11" lengthAdjust="spacingAndGlyphs" textLength="134" x="253" y="105.2104">sellerAddress: address</text><line style="stroke: #A80036; stroke-width: 1.5;" x1="234" x2="392" y1="111.8047" y2="111.8047"/><!--class Buyer--><rect fill="#FEFECE" filter="url(#f1xr9sojy0tani)" height="60.8047" id="Buyer" style="stroke: #A80036; stroke-width: 1.5;" width="160" x="38" y="59"/><ellipse cx="96.25" cy="75" fill="#ADD1B2" rx="11" ry="11" style="stroke: #A80036; stroke-width: 1.0;"/><path d="M98.5938,70.6719 L98.7656,70.75 C98.9844,70.4375 99.1875,70.3438 99.4844,70.3438 C99.7813,70.3438 100.0625,70.4844 100.2188,70.75 C100.3125,70.9063 100.3281,71.0313 100.3281,71.4688 L100.3281,72.8906 C100.3281,73.3125 100.2969,73.5 100.1875,73.6563 C100.0156,73.875 99.75,74.0156 99.4844,74.0156 C99.2656,74.0156 99.0313,73.9063 98.8906,73.7656 C98.75,73.6406 98.7188,73.5156 98.6563,73.1094 C98.5625,72.7031 98.3906,72.4844 97.9063,72.2031 C97.4375,71.9531 96.8281,71.7969 96.25,71.7969 C94.5156,71.7969 93.2656,73.1094 93.2656,74.8906 L93.2656,75.9844 C93.2656,77.6875 94.5625,78.7813 96.6094,78.7813 C97.375,78.7813 98.0625,78.6563 98.4844,78.3906 C98.6719,78.2969 98.6719,78.2969 99.125,77.8125 C99.3125,77.625 99.5156,77.5469 99.7344,77.5469 C100.2031,77.5469 100.5938,77.9375 100.5938,78.3906 C100.5938,78.7813 100.2656,79.2344 99.6875,79.6406 C98.9375,80.1875 97.7813,80.4844 96.5625,80.4844 C93.6719,80.4844 91.5625,78.5938 91.5625,76.0156 L91.5625,74.8906 C91.5625,72.1719 93.5625,70.0938 96.1875,70.0938 C97.0625,70.0938 97.6563,70.2344 98.5938,70.6719 Z "/><text fill="#000000" font-family="sans-serif" font-size="12" lengthAdjust="spacingAndGlyphs" textLength="35" x="116.75" y="79.1543">Buyer</text><line style="stroke: #A80036; stroke-width: 1.5;" x1="39" x2="197" y1="91" y2="91"/><ellipse cx="49" cy="102.9023" fill="none" rx="3" ry="3" style="stroke: #038048; stroke-width: 1.0;"/><text fill="#000000" font-family="sans-serif" font-size="11" lengthAdjust="spacingAndGlyphs" textLength="134" x="58" y="105.2104">buyerAddress: address</text><line style="stroke: #A80036; stroke-width: 1.5;" x1="39" x2="197" y1="111.8047" y2="111.8047"/><!--link Base to Core--><path d="M313,522.23 C313,535.954 313,549.523 313,561.92 " fill="none" id="Base-Core" style="stroke: #A80036; stroke-width: 1.0;"/><polygon fill="none" points="306,522.132,313,502.132,320,522.132,306,522.132" style="stroke: #A80036; stroke-width: 1.0;"/><!--link AccessControl to Base--><path d="M313,286.602 C313,299.186 313,312.626 313,325.871 " fill="none" id="AccessControl-Base" style="stroke: #A80036; stroke-width: 1.0;"/><polygon fill="none" points="306,286.415,313,266.415,320,286.415,306,286.415" style="stroke: #A80036; stroke-width: 1.0;"/><!--link Manufactor to AccessControl--><path d="M477.423,120.011 C454.09,134.484 425.264,152.365 398.298,169.091 " fill="none" id="Manufactor-AccessControl" style="stroke: #A80036; stroke-width: 1.0;"/><polygon fill="none" points="401.608,175.275,380.922,179.869,394.228,163.378,401.608,175.275" style="stroke: #A80036; stroke-width: 1.0;"/><!--link Seller to AccessControl--><path d="M313,120.011 C313,131.728 313,145.677 313,159.439 " fill="none" id="Seller-AccessControl" style="stroke: #A80036; stroke-width: 1.0;"/><polygon fill="none" points="320,159.869,313,179.869,306,159.869,320,159.869" style="stroke: #A80036; stroke-width: 1.0;"/><!--link Buyer to AccessControl--><path d="M161.762,120.011 C183.02,134.347 209.234,152.024 233.833,168.613 " fill="none" id="Buyer-AccessControl" style="stroke: #A80036; stroke-width: 1.0;"/><polygon fill="none" points="237.856,162.883,250.524,179.869,230.029,174.491,237.856,162.883" style="stroke: #A80036; stroke-width: 1.0;"/><!--
@startuml
package smartContrat {

     class Core  {
        + newContractAddress: address
        + owner: address
        + upgrade(newContractAddress): address
        + ownable(owner): address
        + pause(bootleID): unit256

    }

     class Base {
        + Field
        + OilProduce
        + Bootle
        + harvest()
        + transport(State enum)
        + press()
        + bootling()
        + getDelivery(Address sellerAddress)
        + presentOil(bootleId)
        + buyOil(bootleId, buyerAddress)
    }

    class AccessControl {
        + setManufactor(manufactorAddress): address
        + setSeller(manufactorAddress): address
        + setBuyer(buyerAddress): address
    }

     class Manufactor {
        + manufactorAddress: address
    }

    class Seller {
        + sellerAddress: address
    }
 
    class Buyer {
        + buyerAddress: address
    }  

    Base <|- - Core
    AccessControl <|- - Base
    Manufactor - -|> AccessControl
    Seller - -|> AccessControl
    Buyer - -|> AccessControl
    
}
@enduml

PlantUML version 1.2019.07beta1(Unknown compile time)
(GPL source distribution)
Java Runtime: Java(TM) SE Runtime Environment
JVM: Java HotSpot(TM) 64-Bit Server VM
Java Version: 1.7.0_25-b15
Operating System: Linux
Default Encoding: UTF-8
Language: en
Country: US
--></g></svg>