<?xml version="1.0" encoding="UTF-8" standalone="no"?><svg xmlns="http://www.w3.org/2000/svg" xmlns:xlink="http://www.w3.org/1999/xlink" contentScriptType="application/ecmascript" contentStyleType="text/css" height="536px" preserveAspectRatio="none" style="width:475px;height:536px;" version="1.1" viewBox="0 0 475 536" width="475px" zoomAndPan="magnify"><defs><filter height="300%" id="fg4uqofsd87id" width="300%" x="-1" y="-1"><feGaussianBlur result="blurOut" stdDeviation="2.0"/><feColorMatrix in="blurOut" result="blurOut2" type="matrix" values="0 0 0 0 0 0 0 0 0 0 0 0 0 0 0 0 0 0 .4 0"/><feOffset dx="4.0" dy="4.0" in="blurOut2" result="blurOut3"/><feBlend in="SourceGraphic" in2="blurOut3" mode="normal"/></filter></defs><g><rect fill="#FFFFFF" filter="url(#fg4uqofsd87id)" height="58.2656" style="stroke: #A80036; stroke-width: 1.0;" width="10" x="22" y="117.4297"/><rect fill="#FFFFFF" filter="url(#fg4uqofsd87id)" height="58.2656" style="stroke: #A80036; stroke-width: 1.0;" width="10" x="94" y="117.4297"/><rect fill="#FFFFFF" filter="url(#fg4uqofsd87id)" height="157.5313" style="stroke: #A80036; stroke-width: 1.0;" width="10" x="182" y="146.5625"/><rect fill="#FFFFFF" filter="url(#fg4uqofsd87id)" height="193.5313" style="stroke: #A80036; stroke-width: 1.0;" width="10" x="259" y="246.9609"/><rect fill="#FFFFFF" filter="url(#fg4uqofsd87id)" height="150.3984" style="stroke: #A80036; stroke-width: 1.0;" width="10" x="313.5" y="290.0938"/><rect fill="#FFFFFF" filter="url(#fg4uqofsd87id)" height="23" style="stroke: #A80036; stroke-width: 1.0;" width="10" x="427.5" y="417.4922"/><line style="stroke: #A80036; stroke-width: 1.0; stroke-dasharray: 5.0,5.0;" x1="27" x2="27" y1="86.2969" y2="449.4922"/><line style="stroke: #A80036; stroke-width: 1.0; stroke-dasharray: 5.0,5.0;" x1="99" x2="99" y1="86.2969" y2="449.4922"/><line style="stroke: #A80036; stroke-width: 1.0; stroke-dasharray: 5.0,5.0;" x1="187" x2="187" y1="86.2969" y2="449.4922"/><line style="stroke: #A80036; stroke-width: 1.0; stroke-dasharray: 5.0,5.0;" x1="263.5" x2="263.5" y1="86.2969" y2="449.4922"/><line style="stroke: #A80036; stroke-width: 1.0; stroke-dasharray: 5.0,5.0;" x1="318.5" x2="318.5" y1="86.2969" y2="449.4922"/><line style="stroke: #A80036; stroke-width: 1.0; stroke-dasharray: 5.0,5.0;" x1="432.5" x2="432.5" y1="86.2969" y2="449.4922"/><text fill="#000000" font-family="sans-serif" font-size="14" lengthAdjust="spacingAndGlyphs" textLength="32" x="8" y="82.9951">Field</text><ellipse cx="27" cy="54" fill="#FEFECE" filter="url(#fg4uqofsd87id)" rx="12" ry="12" style="stroke: #A80036; stroke-width: 2.0;"/><line style="stroke: #A80036; stroke-width: 2.0;" x1="15" x2="39" y1="68" y2="68"/><text fill="#000000" font-family="sans-serif" font-size="14" lengthAdjust="spacingAndGlyphs" textLength="32" x="8" y="461.4873">Field</text><ellipse cx="27" cy="480.7891" fill="#FEFECE" filter="url(#fg4uqofsd87id)" rx="12" ry="12" style="stroke: #A80036; stroke-width: 2.0;"/><line style="stroke: #A80036; stroke-width: 2.0;" x1="15" x2="39" y1="494.7891" y2="494.7891"/><text fill="#000000" font-family="sans-serif" font-size="14" lengthAdjust="spacingAndGlyphs" textLength="48" x="72" y="82.9951">Farmer</text><ellipse cx="99" cy="13" fill="#FEFECE" filter="url(#fg4uqofsd87id)" rx="8" ry="8" style="stroke: #A80036; stroke-width: 2.0;"/><path d="M99,21 L99,48 M86,29 L112,29 M99,48 L86,63 M99,48 L112,63 " fill="none" filter="url(#fg4uqofsd87id)" style="stroke: #A80036; stroke-width: 2.0;"/><text fill="#000000" font-family="sans-serif" font-size="14" lengthAdjust="spacingAndGlyphs" textLength="48" x="72" y="461.4873">Farmer</text><ellipse cx="99" cy="474.7891" fill="#FEFECE" filter="url(#fg4uqofsd87id)" rx="8" ry="8" style="stroke: #A80036; stroke-width: 2.0;"/><path d="M99,482.7891 L99,509.7891 M86,490.7891 L112,490.7891 M99,509.7891 L86,524.7891 M99,509.7891 L112,524.7891 " fill="none" filter="url(#fg4uqofsd87id)" style="stroke: #A80036; stroke-width: 2.0;"/><text fill="#000000" font-family="sans-serif" font-size="14" lengthAdjust="spacingAndGlyphs" textLength="21" x="173.5" y="82.9951">Mill</text><ellipse cx="187" cy="13" fill="#FEFECE" filter="url(#fg4uqofsd87id)" rx="8" ry="8" style="stroke: #A80036; stroke-width: 2.0;"/><path d="M187,21 L187,48 M174,29 L200,29 M187,48 L174,63 M187,48 L200,63 " fill="none" filter="url(#fg4uqofsd87id)" style="stroke: #A80036; stroke-width: 2.0;"/><text fill="#000000" font-family="sans-serif" font-size="14" lengthAdjust="spacingAndGlyphs" textLength="21" x="173.5" y="461.4873">Mill</text><ellipse cx="187" cy="474.7891" fill="#FEFECE" filter="url(#fg4uqofsd87id)" rx="8" ry="8" style="stroke: #A80036; stroke-width: 2.0;"/><path d="M187,482.7891 L187,509.7891 M174,490.7891 L200,490.7891 M187,509.7891 L174,524.7891 M187,509.7891 L200,524.7891 " fill="none" filter="url(#fg4uqofsd87id)" style="stroke: #A80036; stroke-width: 2.0;"/><text fill="#000000" font-family="sans-serif" font-size="14" lengthAdjust="spacingAndGlyphs" textLength="41" x="240.5" y="82.9951">Bottle</text><ellipse cx="264" cy="54" fill="#FEFECE" filter="url(#fg4uqofsd87id)" rx="12" ry="12" style="stroke: #A80036; stroke-width: 2.0;"/><line style="stroke: #A80036; stroke-width: 2.0;" x1="252" x2="276" y1="68" y2="68"/><text fill="#000000" font-family="sans-serif" font-size="14" lengthAdjust="spacingAndGlyphs" textLength="41" x="240.5" y="461.4873">Bottle</text><ellipse cx="264" cy="480.7891" fill="#FEFECE" filter="url(#fg4uqofsd87id)" rx="12" ry="12" style="stroke: #A80036; stroke-width: 2.0;"/><line style="stroke: #A80036; stroke-width: 2.0;" x1="252" x2="276" y1="494.7891" y2="494.7891"/><text fill="#000000" font-family="sans-serif" font-size="14" lengthAdjust="spacingAndGlyphs" textLength="36" x="297.5" y="82.9951">Shop</text><ellipse cx="318.5" cy="13" fill="#FEFECE" filter="url(#fg4uqofsd87id)" rx="8" ry="8" style="stroke: #A80036; stroke-width: 2.0;"/><path d="M318.5,21 L318.5,48 M305.5,29 L331.5,29 M318.5,48 L305.5,63 M318.5,48 L331.5,63 " fill="none" filter="url(#fg4uqofsd87id)" style="stroke: #A80036; stroke-width: 2.0;"/><text fill="#000000" font-family="sans-serif" font-size="14" lengthAdjust="spacingAndGlyphs" textLength="36" x="297.5" y="461.4873">Shop</text><ellipse cx="318.5" cy="474.7891" fill="#FEFECE" filter="url(#fg4uqofsd87id)" rx="8" ry="8" style="stroke: #A80036; stroke-width: 2.0;"/><path d="M318.5,482.7891 L318.5,509.7891 M305.5,490.7891 L331.5,490.7891 M318.5,509.7891 L305.5,524.7891 M318.5,509.7891 L331.5,524.7891 " fill="none" filter="url(#fg4uqofsd87id)" style="stroke: #A80036; stroke-width: 2.0;"/><text fill="#000000" font-family="sans-serif" font-size="14" lengthAdjust="spacingAndGlyphs" textLength="68" x="395.5" y="82.9951">Customer</text><ellipse cx="432.5" cy="13" fill="#FEFECE" filter="url(#fg4uqofsd87id)" rx="8" ry="8" style="stroke: #A80036; stroke-width: 2.0;"/><path d="M432.5,21 L432.5,48 M419.5,29 L445.5,29 M432.5,48 L419.5,63 M432.5,48 L445.5,63 " fill="none" filter="url(#fg4uqofsd87id)" style="stroke: #A80036; stroke-width: 2.0;"/><text fill="#000000" font-family="sans-serif" font-size="14" lengthAdjust="spacingAndGlyphs" textLength="68" x="395.5" y="461.4873">Customer</text><ellipse cx="432.5" cy="474.7891" fill="#FEFECE" filter="url(#fg4uqofsd87id)" rx="8" ry="8" style="stroke: #A80036; stroke-width: 2.0;"/><path d="M432.5,482.7891 L432.5,509.7891 M419.5,490.7891 L445.5,490.7891 M432.5,509.7891 L419.5,524.7891 M432.5,509.7891 L445.5,524.7891 " fill="none" filter="url(#fg4uqofsd87id)" style="stroke: #A80036; stroke-width: 2.0;"/><rect fill="#FFFFFF" filter="url(#fg4uqofsd87id)" height="58.2656" style="stroke: #A80036; stroke-width: 1.0;" width="10" x="22" y="117.4297"/><rect fill="#FFFFFF" filter="url(#fg4uqofsd87id)" height="58.2656" style="stroke: #A80036; stroke-width: 1.0;" width="10" x="94" y="117.4297"/><rect fill="#FFFFFF" filter="url(#fg4uqofsd87id)" height="157.5313" style="stroke: #A80036; stroke-width: 1.0;" width="10" x="182" y="146.5625"/><rect fill="#FFFFFF" filter="url(#fg4uqofsd87id)" height="193.5313" style="stroke: #A80036; stroke-width: 1.0;" width="10" x="259" y="246.9609"/><rect fill="#FFFFFF" filter="url(#fg4uqofsd87id)" height="150.3984" style="stroke: #A80036; stroke-width: 1.0;" width="10" x="313.5" y="290.0938"/><rect fill="#FFFFFF" filter="url(#fg4uqofsd87id)" height="23" style="stroke: #A80036; stroke-width: 1.0;" width="10" x="427.5" y="417.4922"/><polygon fill="#A80036" points="43,113.4297,33,117.4297,43,121.4297,39,117.4297" style="stroke: #A80036; stroke-width: 1.0;"/><line style="stroke: #A80036; stroke-width: 1.0;" x1="37" x2="93" y1="117.4297" y2="117.4297"/><text fill="#000000" font-family="sans-serif" font-size="13" lengthAdjust="spacingAndGlyphs" textLength="48" x="49" y="112.3638">harvest</text><polygon fill="#A80036" points="170,142.5625,180,146.5625,170,150.5625,174,146.5625" style="stroke: #A80036; stroke-width: 1.0;"/><line style="stroke: #A80036; stroke-width: 1.0;" x1="104" x2="176" y1="146.5625" y2="146.5625"/><text fill="#000000" font-family="sans-serif" font-size="13" lengthAdjust="spacingAndGlyphs" textLength="59" x="111" y="141.4966">transport</text><polygon fill="#A80036" points="170,171.6953,180,175.6953,170,179.6953,174,175.6953" style="stroke: #A80036; stroke-width: 1.0;"/><line style="stroke: #A80036; stroke-width: 1.0; stroke-dasharray: 2.0,2.0;" x1="27" x2="176" y1="175.6953" y2="175.6953"/><text fill="#000000" font-family="sans-serif" font-size="13" lengthAdjust="spacingAndGlyphs" textLength="49" x="34" y="170.6294">oil seed</text><line style="stroke: #A80036; stroke-width: 1.0;" x1="192" x2="234" y1="204.8281" y2="204.8281"/><line style="stroke: #A80036; stroke-width: 1.0;" x1="234" x2="234" y1="204.8281" y2="217.8281"/><line style="stroke: #A80036; stroke-width: 1.0;" x1="193" x2="234" y1="217.8281" y2="217.8281"/><polygon fill="#A80036" points="203,213.8281,193,217.8281,203,221.8281,199,217.8281" style="stroke: #A80036; stroke-width: 1.0;"/><text fill="#000000" font-family="sans-serif" font-size="13" lengthAdjust="spacingAndGlyphs" textLength="35" x="199" y="199.7622">press</text><polygon fill="#A80036" points="247,242.9609,257,246.9609,247,250.9609,251,246.9609" style="stroke: #A80036; stroke-width: 1.0;"/><line style="stroke: #A80036; stroke-width: 1.0;" x1="192" x2="253" y1="246.9609" y2="246.9609"/><text fill="#000000" font-family="sans-serif" font-size="13" lengthAdjust="spacingAndGlyphs" textLength="48" x="199" y="241.895">bottling</text><polygon fill="#A80036" points="203,256.9609,193,260.9609,203,264.9609,199,260.9609" style="stroke: #A80036; stroke-width: 1.0;"/><line style="stroke: #A80036; stroke-width: 1.0; stroke-dasharray: 2.0,2.0;" x1="197" x2="258" y1="260.9609" y2="260.9609"/><polygon fill="#A80036" points="301.5,286.0938,311.5,290.0938,301.5,294.0938,305.5,290.0938" style="stroke: #A80036; stroke-width: 1.0;"/><line style="stroke: #A80036; stroke-width: 1.0;" x1="192" x2="307.5" y1="290.0938" y2="290.0938"/><text fill="#000000" font-family="sans-serif" font-size="13" lengthAdjust="spacingAndGlyphs" textLength="59" x="199" y="285.0278">transport</text><polygon fill="#A80036" points="301.5,300.0938,311.5,304.0938,301.5,308.0938,305.5,304.0938" style="stroke: #A80036; stroke-width: 1.0;"/><line style="stroke: #A80036; stroke-width: 1.0; stroke-dasharray: 2.0,2.0;" x1="269" x2="307.5" y1="304.0938" y2="304.0938"/><line style="stroke: #A80036; stroke-width: 1.0;" x1="323.5" x2="365.5" y1="333.2266" y2="333.2266"/><line style="stroke: #A80036; stroke-width: 1.0;" x1="365.5" x2="365.5" y1="333.2266" y2="346.2266"/><line style="stroke: #A80036; stroke-width: 1.0;" x1="324.5" x2="365.5" y1="346.2266" y2="346.2266"/><polygon fill="#A80036" points="334.5,342.2266,324.5,346.2266,334.5,350.2266,330.5,346.2266" style="stroke: #A80036; stroke-width: 1.0;"/><text fill="#000000" font-family="sans-serif" font-size="13" lengthAdjust="spacingAndGlyphs" textLength="74" x="330.5" y="328.1606">get delivery</text><line style="stroke: #A80036; stroke-width: 1.0;" x1="323.5" x2="365.5" y1="375.3594" y2="375.3594"/><line style="stroke: #A80036; stroke-width: 1.0;" x1="365.5" x2="365.5" y1="375.3594" y2="388.3594"/><line style="stroke: #A80036; stroke-width: 1.0;" x1="324.5" x2="365.5" y1="388.3594" y2="388.3594"/><polygon fill="#A80036" points="334.5,384.3594,324.5,388.3594,334.5,392.3594,330.5,388.3594" style="stroke: #A80036; stroke-width: 1.0;"/><text fill="#000000" font-family="sans-serif" font-size="13" lengthAdjust="spacingAndGlyphs" textLength="90" x="330.5" y="370.2935">present bottle</text><polygon fill="#A80036" points="334.5,413.4922,324.5,417.4922,334.5,421.4922,330.5,417.4922" style="stroke: #A80036; stroke-width: 1.0;"/><line style="stroke: #A80036; stroke-width: 1.0;" x1="328.5" x2="426.5" y1="417.4922" y2="417.4922"/><text fill="#000000" font-family="sans-serif" font-size="13" lengthAdjust="spacingAndGlyphs" textLength="41" x="340.5" y="412.4263">buy oil</text><polygon fill="#A80036" points="415.5,427.4922,425.5,431.4922,415.5,435.4922,419.5,431.4922" style="stroke: #A80036; stroke-width: 1.0;"/><line style="stroke: #A80036; stroke-width: 1.0; stroke-dasharray: 2.0,2.0;" x1="269" x2="421.5" y1="431.4922" y2="431.4922"/><!--
@startuml
entity Field
actor Farmer
actor Mill
entity Bottle
actor Shop 
actor Customer
Farmer -> Field : harvest
activate Farmer
activate Field
Farmer -> Mill : transport
activate Mill
Field - -> Mill : oil seed
deactivate Field
deactivate Farmer
Mill -> Mill : press 
Mill -> Bottle : bottling
activate Bottle
Bottle - -> Mill 
Mill -> Shop : transport
activate Shop
Bottle - -> Shop
deactivate Mill
Shop -> Shop :  get delivery
Shop -> Shop : present bottle
Customer -> Shop : buy oil
activate Customer
Bottle - -> Customer
@enduml

PlantUML version 1.2019.07beta1(Unknown compile time)
(GPL source distribution)
Java Runtime: Java(TM) SE Runtime Environment
JVM: Java HotSpot(TM) 64-Bit Server VM
Java Version: 1.7.0_25-b15
Operating System: Linux
Default Encoding: UTF-8
Language: en
Country: US
--></g></svg>